<svg width="96" height="96" viewBox="0 0 96 96" fill="none" xmlns="http://www.w3.org/2000/svg"><path fill="#EEE" d="M0 0h96v96H0z"/><path d="m69.987 47.488-7.27-7.421 5.257-5.366-.005-.005.005-.004h-.01L53.622 20.054A6.78 6.78 0 0 0 48.764 18a6.78 6.78 0 0 0-4.859 2.054L26.013 38.316c-2.684 2.738-2.684 7.178 0 9.917l9.084 9.272-5.257 5.366 12.537 12.795a6.78 6.78 0 0 0 4.86 2.055 6.779 6.779 0 0 0 4.858-2.055l17.892-18.261c2.684-2.738 2.684-7.179 0-9.917ZM28.4 45.796a3.623 3.623 0 0 1 0-5.043L46.293 22.49a3.437 3.437 0 0 1 2.47-1.045c.934 0 1.812.371 2.472 1.045l11.955 12.2h-5.742l.001.002-19.964 20.376-9.085-9.273Zm39.2 9.172L49.707 73.231a3.438 3.438 0 0 1-2.47 1.044 3.438 3.438 0 0 1-2.472-1.044l-10.15-10.36L57.45 39.566l10.15 10.36a3.622 3.622 0 0 1 0 5.042Z" fill="#fff"/></svg>