<svg width="96" height="96" fill="none" xmlns="http://www.w3.org/2000/svg"><path fill="#EEE" d="M0 0h96v96H0z"/><path d="m76.933 68.267-4-3.934V33.2H61.267L56.4 27.4H44.133L40.4 31.8 37.6 29l4.667-5.6h16l4.866 5.8h9.8c1.023 0 1.945.411 2.767 1.233.822.823 1.233 1.745 1.233 2.767v35.067Zm-15.6-15.534L47.867 39.267a13.733 13.733 0 0 1 5.633.233c1.844.467 3.456 1.389 4.833 2.767 1.378 1.377 2.311 2.989 2.8 4.833.49 1.844.556 3.722.2 5.633ZM32.067 29.2l4 4H27.6v34.2h36.933L20 22.867 22.867 20l53.8 53.8-2.867 2.867-5.267-5.267H27.6c-1.067 0-2-.4-2.8-1.2-.8-.8-1.2-1.733-1.2-2.8V33.2c0-1.067.4-2 1.2-2.8.8-.8 1.733-1.2 2.8-1.2h4.467ZM42.4 42.333l2.867 2.867c-.756.711-1.323 1.5-1.7 2.367-.378.866-.567 1.81-.567 2.833 0 2 .711 3.711 2.133 5.133 1.423 1.423 3.134 2.134 5.134 2.134.956 0 1.884-.2 2.783-.6.9-.4 1.706-.956 2.417-1.667l2.866 2.867a10.788 10.788 0 0 1-3.698 2.533 11.334 11.334 0 0 1-4.368.867c-3.13 0-5.79-1.096-7.98-3.287C40.094 56.19 39 53.53 39 50.4c0-1.514.289-2.97.867-4.368a10.788 10.788 0 0 1 2.533-3.699Z" fill="#fff"/></svg>