<?xml version="1.0" encoding="UTF-8"?>
<svg version="1.1" viewBox="0 0 505 141" xmlns="http://www.w3.org/2000/svg">
  <desc>Softonic</desc>
  <path d="M170.758 62.53c-7.004-2.842-10.066-4.508-10.066-8.548 0-1.752.426-2.816 1.47-3.677 1.816-1.513 5.38-2.344 10.043-2.344 2.647 0 5.574.264 8.462.766.213.042.474.069.733.069a4.12 4.12 0 0 0 4.033-3.288c.012-.059.022-.12.027-.182.212-2.289-1.35-4.328-3.493-4.583-2.341-.404-5.928-.878-9.822-.878-6.753 0-11.876 1.417-15.231 4.211-2.914 2.33-4.468 5.762-4.468 9.906 0 9.87 8.72 13.446 15.088 16.058l.195.08c7.565 3.145 11.846 5.226 11.846 11.403 0 2.77-.874 4.693-2.748 6.057-2.006 1.437-5.206 2.202-9.242 2.202-3.474 0-7.293-.572-10.751-1.608a4.304 4.304 0 0 0-1.242-.182c-1.844 0-3.427 1.133-3.939 2.82a4.023 4.023 0 0 0 .34 3.126 4.129 4.129 0 0 0 2.458 1.99c2.464.755 7.474 2.032 13.143 2.032 5.801 0 10.567-1.306 14.169-3.88 3.892-2.885 5.935-7.22 5.935-12.556-.001-11.948-9.791-16.021-16.94-18.994ZM233.725 42.438c-4.818-2.69-10.257-2.69-12.87-2.69-2.614 0-8.054 0-12.872 2.69-6.032 3.367-9.091 9.68-9.091 18.764v15.302c0 9.084 3.059 15.4 9.091 18.767 4.818 2.688 10.258 2.688 12.872 2.688 2.596 0 8 0 12.875-2.737 6.029-3.387 9.086-9.683 9.086-18.718V61.202c0-9.083-3.057-15.398-9.091-18.764Zm.971 18.764v15.302c0 11.081-5.296 13.307-13.84 13.307s-13.839-2.226-13.839-13.307V61.202c0-11.079 5.295-13.305 13.839-13.305s13.84 2.225 13.84 13.306ZM362.117 42.438c-4.818-2.69-10.258-2.69-12.872-2.69-2.614 0-8.053 0-12.87 2.69-6.033 3.367-9.092 9.68-9.092 18.764v15.302c0 9.084 3.061 15.4 9.092 18.767 4.818 2.688 10.258 2.688 12.87 2.688 2.598 0 8.002 0 12.876-2.737 6.03-3.387 9.087-9.683 9.087-18.718V61.202c-.001-9.083-3.06-15.398-9.091-18.764Zm.968 18.764v15.302c0 11.081-5.296 13.307-13.841 13.307-8.544 0-13.838-2.226-13.838-13.307V61.202c0-11.079 5.294-13.305 13.838-13.305 8.545 0 13.841 2.225 13.841 13.306ZM406.537 39.748c-5.573 0-10.491.787-14.899 2.534-3.26 1.29-5.273 2.523-6.493 3.324-1.55 1.022-1.437 2.78-1.437 2.78v45.5c0 2.323 1.773 4.074 4.123 4.074 2.275 0 4.124-1.826 4.124-4.074V51.008c.079-.035.126-.054.126-.054.058-.023.117-.049.17-.078 3.832-2.005 8.505-2.979 14.286-2.979 5.425 0 9.184 1.156 11.175 3.434l.054.06c1.871 1.95 2.859 5.385 2.859 9.935v32.56c0 2.323 1.772 4.074 4.122 4.074 2.245 0 4.002-1.79 4.002-4.074v-32.56c0-6.635-1.652-11.986-4.779-15.48-3.692-4.05-9.552-6.098-17.433-6.098ZM445.22 20.652c-2.819 0-5.116 2.266-5.116 5.054 0 2.853 2.295 5.175 5.116 5.175 2.84 0 5.239-2.37 5.239-5.175.001-2.788-2.351-5.054-5.239-5.054ZM445.219 39.748c-2.166 0-3.998 1.866-3.998 4.075v50.063c0 2.284 1.756 4.074 3.998 4.074 2.351 0 4.125-1.751 4.125-4.074V43.823c0-2.248-1.851-4.075-4.125-4.075ZM504.583 89.615a3.998 3.998 0 0 0-3.68-2.41c-.515 0-1.018.097-1.494.287l-.207.071c-3.321 1.17-7.326 1.788-11.584 1.788-8.234 0-18.051-3.625-18.051-20.895 0-17.272 9.817-20.897 18.051-20.897 7.039 0 11.126 1.572 11.516 1.73.05.027.101.053.154.076a3.995 3.995 0 0 0 1.614.338 4.003 4.003 0 0 0 3.695-2.44 3.908 3.908 0 0 0 .163-3.06 4.051 4.051 0 0 0-2.177-2.317c-.662-.286-6.048-2.476-14.965-2.476-4.33 0-10.636.825-16.093 4.756-6.771 4.88-10.205 13.05-10.205 24.29 0 11.236 3.434 19.407 10.205 24.285 5.457 3.933 11.763 4.758 16.093 4.758 5.2 0 10.054-.772 14.426-2.293.091-.033.161-.057.217-.076.161-.036.317-.095.463-.174a4.42 4.42 0 0 0 2-2.242c.412-1.044.361-2.141-.141-3.1ZM314.854 89.94a17.255 17.255 0 0 0-.528-.114c-3.02-.632-6.936-2.68-9.986-5.635-3.513-3.361-5.291-8.252-5.291-14.542V47.773h14.705c2.71 0 4.815-2.589 3.915-5.392-.538-1.682-2.217-2.756-4.003-2.756h-14.617V20.442c0-2.858-3.065-5.141-5.958-3.551-1.385.761-2.163 2.284-2.163 3.85v19.006h-27.049c.598-4.114 2.23-7.51 4.865-10.113 3.457-3.347 8.044-4.638 11.154-5.148 2.102-.188 3.755-1.913 3.755-4.04 0-2.252-1.847-4.078-4.127-4.078-.094 0-.269-.006-.266-.022-4.333.632-10.922 2.423-16.222 7.492-4.992 4.804-7.59 11.476-7.722 19.833V93.769c0 1.945 1.329 3.712 3.257 4.102 2.65.537 4.988-1.46 4.988-3.986V47.896h27.367v21.753c0 8.569 2.597 15.415 7.72 20.346 4.492 4.366 10.002 7 14.191 7.862 2.909.544 5.481-1.928 4.929-4.8-.284-1.486-1.453-2.708-2.914-3.117ZM112.15 70.077 94.418 52.556l12.821-12.669-.011-.011.011-.01h-.022L72.24 5.305C68.97 2.072 64.68.455 60.392.455c-4.29 0-8.577 1.617-11.85 4.85L4.908 48.42a16.418 16.418 0 0 0 0 23.416l22.155 21.891-12.82 12.667 30.574 30.211c3.273 3.233 7.56 4.85 11.85 4.85 4.287 0 8.576-1.617 11.848-4.85l43.635-43.115a16.417 16.417 0 0 0 0-23.414ZM10.73 66.083a8.36 8.36 0 0 1 0-11.908l43.636-43.116a8.52 8.52 0 0 1 6.026-2.467c2.276 0 4.416.877 6.026 2.467l29.154 28.806H81.57l.002.002-48.688 48.108L10.73 66.083Zm95.597 21.656-43.635 43.117a8.525 8.525 0 0 1-6.026 2.465 8.526 8.526 0 0 1-6.026-2.465l-24.753-24.46 55.688-55.023 24.752 24.459a8.355 8.355 0 0 1 0 11.907Z" fill="#fff"/>
</svg>